<?xml version="1.0" encoding="iso-8859-1"?>
<!-- Generator: Adobe Illustrator 20.1.0, SVG Export Plug-In . SVG Version: 6.00 Build 0)  -->
<svg xmlns="http://www.w3.org/2000/svg" xmlns:xlink="http://www.w3.org/1999/xlink" version="1.1" id="&#1057;&#1083;&#1086;&#1081;_1" x="0px" y="0px" viewBox="0 0 64 64" style="enable-background:new 0 0 64 64;" xml:space="preserve">
<linearGradient id="SVGID_1__43634" gradientUnits="userSpaceOnUse" x1="32" y1="48.8125" x2="32" y2="52.1538" spreadMethod="reflect">
	<stop offset="0" style="stop-color:#6DC7FF"/>
	<stop offset="1" style="stop-color:#E6ABFF"/>
</linearGradient>
<rect x="31" y="49" style="fill:url(#SVGID_1__43634);" width="2" height="3"/>
<linearGradient id="SVGID_2__43634" gradientUnits="userSpaceOnUse" x1="40" y1="29.5" x2="40" y2="32.3125" spreadMethod="reflect">
	<stop offset="0" style="stop-color:#6DC7FF"/>
	<stop offset="1" style="stop-color:#E6ABFF"/>
</linearGradient>
<path style="fill:url(#SVGID_2__43634);" d="M40,32h-1v-2h1c0.552,0,1,0.448,1,1v0C41,31.552,40.552,32,40,32z"/>
<linearGradient id="SVGID_3__43634" gradientUnits="userSpaceOnUse" x1="24" y1="29.5" x2="24" y2="32.3125" spreadMethod="reflect">
	<stop offset="0" style="stop-color:#6DC7FF"/>
	<stop offset="1" style="stop-color:#E6ABFF"/>
</linearGradient>
<path style="fill:url(#SVGID_3__43634);" d="M25,32h-1c-0.552,0-1-0.448-1-1v0c0-0.552,0.448-1,1-1h1V32z"/>
<linearGradient id="SVGID_4__43634" gradientUnits="userSpaceOnUse" x1="30.0712" y1="5.2448" x2="32.0712" y2="58.9114" spreadMethod="reflect">
	<stop offset="0" style="stop-color:#1A6DFF"/>
	<stop offset="1" style="stop-color:#C822FF"/>
</linearGradient>
<path style="fill:url(#SVGID_4__43634);" d="M40.448,53.66C39.936,52.636,38.906,52,37.762,52H35v-2.427c4.61-1.31,8-5.549,8-10.573v-8  c0-1.654-1.346-3-3-3h-1v-5c0-3.859-3.141-7-7-7s-7,3.141-7,7v5h-1c-1.654,0-3,1.346-3,3v8c0,5.024,3.39,9.263,8,10.573V52h-2.762  c-1.145,0-2.174,0.636-2.687,1.66L22.382,56H18v2h28v-2h-4.382L40.448,53.66z M40,30c0.552,0,1,0.448,1,1s-0.448,1-1,1h-1v-2H40z   M32,18c2.757,0,5,2.243,5,5v3h-3v2h3v2h-3v2h3v2h-3v2h3v3c0,2.757-2.243,5-5,5s-5-2.243-5-5v-3h3v-2h-3v-2h3v-2h-3v-2h3v-2h-3v-3  C27,20.243,29.243,18,32,18z M24,30h1v2h-1c-0.552,0-1-0.448-1-1S23.448,30,24,30z M23,39v-5.184C23.314,33.928,23.648,34,24,34h1v5  c0,3.859,3.141,7,7,7s7-3.141,7-7v-5h1c0.352,0,0.686-0.072,1-0.184V39c0,4.963-4.037,9-9,9S23,43.963,23,39z M31,49.949  C31.33,49.979,31.663,50,32,50s0.67-0.021,1-0.051V52h-2V49.949z M25.341,54.555C25.512,54.213,25.855,54,26.238,54h11.523  c0.383,0,0.727,0.213,0.897,0.555L39.382,56H24.618L25.341,54.555z"/>
<linearGradient id="SVGID_5__43634" gradientUnits="userSpaceOnUse" x1="31.3425" y1="5.1974" x2="33.3425" y2="58.864" spreadMethod="reflect">
	<stop offset="0" style="stop-color:#1A6DFF"/>
	<stop offset="1" style="stop-color:#C822FF"/>
</linearGradient>
<path style="fill:url(#SVGID_5__43634);" d="M32,6c-9.374,0-17,7.626-17,17h2c0-8.271,6.729-15,15-15s15,6.729,15,15h2  C49,13.626,41.374,6,32,6z"/>
<linearGradient id="SVGID_6__43634" gradientUnits="userSpaceOnUse" x1="31.3408" y1="5.1974" x2="33.3408" y2="58.8641" spreadMethod="reflect">
	<stop offset="0" style="stop-color:#1A6DFF"/>
	<stop offset="1" style="stop-color:#C822FF"/>
</linearGradient>
<path style="fill:url(#SVGID_6__43634);" d="M32,13c5.514,0,10,4.486,10,10h2c0-6.617-5.383-12-12-12s-12,5.383-12,12h2  C22,17.486,26.486,13,32,13z"/>
</svg>
